<svg width="642" height="627" viewBox="0 0 642 627" fill="none" xmlns="http://www.w3.org/2000/svg">
<g clip-path="url(#clip0_330_68)">
<path d="M198.102 459.506H117.745C115.719 459.506 114.07 457.857 114.07 455.831C114.07 453.806 115.719 452.158 117.745 452.158H198.102C200.128 452.158 201.775 453.806 201.775 455.831C201.775 457.857 200.128 459.506 198.102 459.506Z" fill="#F7F372"/>
<path d="M54.5879 479.173C54.5879 479.833 55.1179 480.363 55.778 480.363H260.068C260.728 480.363 261.258 479.833 261.258 479.173C261.258 478.513 260.728 477.983 260.068 477.983H55.778C55.1179 477.983 54.5879 478.513 54.5879 479.173Z" fill="#3F3D56"/>
<path d="M485.607 239.403C521.506 239.403 550.607 210.302 550.607 174.403C550.607 138.505 521.506 109.403 485.607 109.403C449.709 109.403 420.607 138.505 420.607 174.403C420.607 210.302 449.709 239.403 485.607 239.403Z" fill="#FF6884"/>
<path d="M0 561.308C0 561.969 0.53003 562.498 1.19006 562.498H523.48C524.14 562.498 524.67 561.969 524.67 561.308C524.67 560.649 524.14 560.118 523.48 560.118H1.19006C0.53003 560.118 0 560.649 0 561.308Z" fill="#3F3D56"/>
<path d="M7.55454 480.947L5.88379 479.116L168.948 330.32L227.696 356.656L291.137 247.862L343.259 222.738L391.551 303.226C417.624 235.727 483.011 165.108 561.362 93.4595L563.289 95.0201C489.804 165.374 426.93 236.048 391.249 307.541L346.58 232.873C344.47 229.346 340.035 227.984 336.308 229.718C307.818 242.974 284.054 264.613 268.194 291.741L228.454 359.712L219.383 355.645C189.045 342.046 153.529 347.745 128.97 370.155L7.55454 480.947Z" fill="#3F3D56"/>
<path d="M565.038 107.006L562.562 107.178L558.568 98.5205L549.624 96.7038L549.276 94.2465L564.02 92.1514L565.038 107.006Z" fill="#3F3D56"/>
<path d="M310.685 159.98L319.45 126.283L353.597 124.64L363.813 171.091L310.685 159.98Z" fill="#945E4C"/>
<path opacity="0.1" d="M310.685 161.98L319.45 128.283L353.597 126.64L363.813 173.091L310.685 161.98Z" fill="black"/>
<path d="M333.154 145.141C355.917 145.141 374.37 126.688 374.37 103.925C374.37 81.1614 355.917 62.7083 333.154 62.7083C310.391 62.7083 291.938 81.1614 291.938 103.925C291.938 126.688 310.391 145.141 333.154 145.141Z" fill="#945E4C"/>
<path d="M355.894 112.649C355.894 112.649 340.237 81.6261 321.892 83.4172C303.546 85.2083 293.882 87.3865 293.882 87.3865C293.882 87.3865 288.436 63.2247 314.074 53.9309C314.074 53.9309 281.476 21.797 320.287 6.03393C359.098 -9.72917 380.815 10.3747 380.815 10.3747C380.815 10.3747 409.544 39.0541 373.361 60.4894C373.361 60.4894 400.228 96.6281 367.7 126.415C367.7 126.415 374.975 102.311 367.384 106.756C359.792 111.201 355.894 112.649 355.894 112.649Z" fill="#2F2E41"/>
<path d="M287.678 330.412L282.196 335.666L242.588 420.591L238.253 561.063H304.799L336.015 491.5L357.047 560.392H416.881L430.752 435.332L393.466 346.887L287.678 330.412Z" fill="#2F2E41"/>
<path d="M356.614 156.556H312.173L263.833 182.569L275.105 232.862C275.105 232.862 272.504 263.21 278.574 285.755C284.644 308.3 282.042 337.782 282.042 337.782L393.466 346.887L396.935 244.568L395.2 176.066L356.614 156.556Z" fill="#E6E6E6"/>
<path d="M271.204 183.003C271.204 183.003 244.323 183.87 239.988 201.212C235.652 218.554 232.184 307.867 232.184 307.867C232.184 307.867 234.785 360.863 263.833 335.665C292.881 310.468 290.28 234.162 290.28 234.162L271.204 183.003Z" fill="#E6E6E6"/>
<path d="M531.927 625.392H373.519C368.154 625.392 363.789 621.027 363.789 615.662V451.904C363.789 446.539 368.154 442.174 373.519 442.174H531.927C537.293 442.174 541.657 446.539 541.657 451.904V615.662C541.657 621.027 537.293 625.392 531.927 625.392Z" fill="white"/>
<path d="M531.927 626.392H373.518C367.602 626.392 362.788 621.579 362.788 615.662V451.904C362.788 445.988 367.602 441.174 373.518 441.174H531.927C537.843 441.174 542.656 445.988 542.656 451.904V615.662C542.656 621.579 537.843 626.392 531.927 626.392ZM373.518 443.174C368.704 443.174 364.788 447.09 364.788 451.904V615.662C364.788 620.476 368.704 624.392 373.518 624.392H531.927C536.74 624.392 540.656 620.476 540.656 615.662V451.904C540.656 447.09 536.74 443.174 531.927 443.174H373.518Z" fill="#3F3D56"/>
<path d="M458.974 582.371H445.918C444.328 582.371 443.035 581.373 443.035 580.146V523.934C443.035 522.707 444.328 521.709 445.918 521.709H458.974C460.564 521.709 461.857 522.707 461.857 523.934V580.146C461.857 581.373 460.564 582.371 458.974 582.371Z" fill="#F7F372"/>
<path d="M415.81 549.245C414.525 549.245 413.48 550.051 413.48 551.043V580.083C413.48 581.074 414.525 581.881 415.81 581.881H428.866C430.15 581.881 431.195 581.074 431.195 580.083V551.043C431.195 550.051 430.15 549.245 428.866 549.245H415.81Z" fill="#F7F372"/>
<path d="M489.082 582.371H476.026C474.437 582.371 473.144 581.373 473.144 580.145V488.025C473.144 486.798 474.437 485.8 476.026 485.8H489.082C490.672 485.8 491.965 486.798 491.965 488.025V580.145C491.965 581.373 490.672 582.371 489.082 582.371Z" fill="#F7F372"/>
<path d="M208.125 178.572H193.211C191.395 178.572 189.918 177.432 189.918 176.03V111.821C189.918 110.419 191.395 109.279 193.211 109.279H208.125C209.941 109.279 211.418 110.419 211.418 111.821V176.03C211.418 177.432 209.941 178.572 208.125 178.572Z" fill="#F7F372"/>
<path d="M158.819 140.733C157.352 140.733 156.158 141.654 156.158 142.786V175.959C156.158 177.091 157.352 178.012 158.819 178.012H173.733C175.2 178.012 176.393 177.091 176.393 175.959V142.786C176.393 141.654 175.2 140.733 173.733 140.733H158.819Z" fill="#F7F372"/>
<path d="M242.517 178.572H227.604C225.788 178.572 224.311 177.432 224.311 176.03V70.8022C224.311 69.4006 225.788 68.2604 227.604 68.2604H242.517C244.333 68.2604 245.81 69.4006 245.81 70.8022V176.03C245.81 177.432 244.333 178.572 242.517 178.572Z" fill="#F7F372"/>
<path d="M428.438 466.001C436.162 465.261 441.482 454.823 440.319 442.681C439.922 437.824 438.367 433.133 435.784 429.001L434.296 415.259L434.524 415.19L438.266 350.032C439.136 334.882 433.139 319.995 421.585 310.158C414.711 304.305 407.379 301.342 402.664 308.737C394.84 321.006 404.974 371.583 411.629 400.338L414.209 431.066C412.457 435.615 411.819 440.517 412.35 445.362C413.51 457.5 420.713 466.74 428.438 466.001Z" fill="#945E4C"/>
<path d="M385.662 177.8C385.662 177.8 408.207 169.129 418.612 195.142C429.018 221.156 440.29 349.488 440.29 349.488L387.396 339.95L385.662 177.8Z" fill="#E6E6E6"/>
<path d="M76.0919 165.076H45.7348C43.7089 165.076 42.0605 163.428 42.0605 161.402C42.0605 159.376 43.709 157.729 45.7348 157.729H76.0919C78.1178 157.729 79.7654 159.376 79.7654 161.402C79.7654 163.428 78.1178 165.076 76.0919 165.076Z" fill="#E6E6E6"/>
<path d="M76.0919 112.997H45.7348C43.7089 112.997 42.0605 111.349 42.0605 109.323C42.0605 107.297 43.709 105.649 45.7348 105.649H76.0919C78.1178 105.649 79.7654 107.297 79.7654 109.323C79.7654 111.349 78.1178 112.997 76.0919 112.997Z" fill="#E6E6E6"/>
<path d="M76.0919 75.4401H45.7348C43.7089 75.4401 42.0605 73.7917 42.0605 71.7658C42.0605 69.74 43.709 68.0923 45.7348 68.0923H76.0919C78.1178 68.0923 79.7654 69.7399 79.7654 71.7658C79.7654 73.7917 78.1178 75.4401 76.0919 75.4401Z" fill="#E6E6E6"/>
<path d="M40.8428 178.754C40.8428 179.414 41.3728 179.944 42.0328 179.944H246.323C246.983 179.944 247.513 179.414 247.513 178.754C247.513 178.094 246.983 177.564 246.323 177.564H42.0328C41.3728 177.564 40.8428 178.094 40.8428 178.754Z" fill="#3F3D56"/>
<path d="M434.843 486.754C434.843 487.414 435.373 487.944 436.033 487.944H640.323C640.983 487.944 641.513 487.414 641.513 486.754C641.513 486.094 640.983 485.564 640.323 485.564H436.033C435.373 485.564 434.843 486.094 434.843 486.754Z" fill="#3F3D56"/>
<path d="M374.843 583.754C374.843 584.414 375.373 584.944 376.033 584.944H580.323C580.983 584.944 581.513 584.414 581.513 583.754C581.513 583.094 580.983 582.564 580.323 582.564H376.033C375.373 582.564 374.843 583.094 374.843 583.754Z" fill="#3F3D56"/>
<path d="M237.467 172.738C229.742 173.477 224.423 183.916 225.585 196.058C225.983 200.914 227.538 205.605 230.12 209.738L231.609 223.48L231.381 223.548L227.639 288.706C226.769 303.856 232.766 318.743 244.32 328.581C251.193 334.433 258.526 337.396 263.241 330.002C271.065 317.732 260.93 267.155 254.275 238.4L251.695 207.672C253.448 203.124 254.086 198.222 253.555 193.376C252.395 181.238 245.191 171.998 237.467 172.738Z" fill="#945E4C"/>
</g>
<defs>
<clipPath id="clip0_330_68">
<rect width="641.513" height="626.392" fill="white"/>
</clipPath>
</defs>
</svg>
